<?xml version="1.0" standalone="no"?>
<!DOCTYPE svg PUBLIC "-//W3C//DTD SVG 20010904//EN"
 "http://www.w3.org/TR/2001/REC-SVG-20010904/DTD/svg10.dtd">
<svg version="1.0" xmlns="http://www.w3.org/2000/svg"
 width="1280.000000pt" height="1280.000000pt" viewBox="0 0 1280.000000 1280.000000"
 preserveAspectRatio="xMidYMid meet">
<metadata>
Created by potrace 1.15, written by Peter Selinger 2001-2017
</metadata>
<g transform="translate(0.000000,1280.000000) scale(0.100000,-0.100000)"
fill="#000000" stroke="none">
<path d="M6090 10754 c-528 -46 -902 -128 -1315 -291 -955 -376 -1830 -1187
-2301 -2133 -219 -441 -346 -879 -411 -1425 -25 -214 -25 -796 0 -1010 97
-814 364 -1483 839 -2108 223 -292 536 -609 838 -849 541 -429 1190 -719 1864
-833 300 -51 418 -59 796 -59 379 0 496 8 800 60 857 145 1630 554 2285 1209
655 655 1064 1429 1209 2285 52 304 60 421 60 800 0 379 -8 496 -60 800 -145
856 -554 1630 -1209 2285 -655 655 -1429 1065 -2285 1209 -276 47 -409 58
-745 61 -176 1 -340 1 -365 -1z m-35 -1214 l-196 -393 32 -166 c17 -91 36
-172 42 -178 6 -9 42 -13 113 -13 l104 0 0 -1070 0 -1070 -560 0 -559 0 -3
112 -3 112 -106 34 -106 35 -514 -260 c-411 -208 -515 -264 -517 -281 -3 -19
58 -52 507 -277 281 -140 521 -255 533 -254 13 0 64 15 113 32 l90 32 3 108 3
107 559 0 560 0 0 -203 c0 -145 3 -206 12 -215 17 -17 459 -17 476 0 9 9 12
70 12 215 l0 203 203 0 c145 0 206 3 215 12 9 9 12 76 12 238 0 162 -3 229
-12 238 -9 9 -70 12 -215 12 l-203 0 0 1070 0 1070 98 0 c53 0 102 4 108 8 11
7 74 294 74 337 0 12 -85 196 -190 408 -104 213 -190 388 -190 389 0 4 70 0
220 -13 381 -32 835 -155 1140 -309 59 -30 61 -32 47 -53 -83 -129 -289 -539
-281 -560 6 -17 323 -197 338 -191 13 5 255 367 312 467 21 37 41 67 44 67 11
0 120 -79 215 -155 222 -179 434 -393 616 -621 78 -97 144 -192 138 -198 -2
-1 -49 -29 -104 -61 -136 -79 -425 -274 -432 -291 -5 -13 140 -281 176 -325
16 -21 19 -20 201 68 102 49 223 112 270 139 143 85 125 83 160 14 117 -232
233 -603 279 -895 20 -126 41 -313 41 -361 l0 -24 -132 0 c-144 0 -490 -24
-507 -35 -15 -9 -15 -381 0 -390 17 -11 363 -35 507 -35 l132 0 0 -24 c0 -48
-21 -235 -41 -361 -46 -291 -162 -663 -279 -894 l-30 -60 -87 51 c-130 76
-484 249 -501 246 -19 -4 -206 -323 -197 -337 11 -18 338 -236 443 -295 56
-32 102 -61 102 -65 0 -12 -76 -118 -155 -216 -176 -218 -388 -430 -610 -608
-89 -71 -195 -147 -205 -147 -4 0 -36 51 -72 113 -68 116 -271 422 -288 432
-13 8 -330 -174 -337 -193 -7 -17 137 -317 229 -474 l67 -118 -60 -30 c-231
-117 -603 -233 -894 -279 -126 -20 -313 -41 -361 -41 l-24 0 0 138 c0 147 -24
494 -35 511 -9 15 -381 15 -390 0 -11 -17 -35 -364 -35 -511 l0 -138 -24 0
c-13 0 -70 5 -127 10 -333 34 -668 115 -961 235 -108 45 -228 102 -228 109 0
3 23 44 51 93 83 142 249 481 244 495 -8 19 -322 201 -334 193 -18 -10 -221
-315 -289 -432 -36 -62 -68 -113 -72 -113 -10 0 -116 76 -205 147 -222 178
-434 390 -610 608 -79 98 -155 204 -155 216 0 4 46 33 103 65 104 59 431 277
442 295 9 14 -178 333 -197 337 -17 3 -371 -170 -501 -246 l-87 -51 -30 60
c-117 231 -233 603 -279 894 -20 126 -41 313 -41 361 l0 24 138 0 c145 1 494
24 512 35 14 8 14 382 0 390 -18 11 -367 34 -512 35 l-138 0 0 24 c0 48 21
235 41 361 46 292 162 663 279 895 l31 61 32 -19 c98 -61 161 -94 339 -183
109 -54 203 -96 210 -94 18 7 198 324 192 339 -5 13 -367 255 -466 312 -38 21
-68 41 -68 44 0 11 79 120 155 215 179 222 393 434 621 616 97 78 192 144 198
138 1 -2 35 -58 74 -124 120 -203 265 -410 288 -409 24 0 321 174 328 191 8
20 -198 431 -281 560 -14 21 -12 23 47 53 305 154 756 276 1140 310 129 11
213 16 218 14 2 -1 -85 -178 -193 -394z"/>
</g>
</svg>
